<?xml version="1.0" encoding="UTF-8" standalone="no"?>
<svg width="82px" height="45px" viewBox="0 0 82 45" version="1.1" xmlns="http://www.w3.org/2000/svg" xmlns:xlink="http://www.w3.org/1999/xlink">
    <!-- Generator: Sketch 41.2 (35397) - http://www.bohemiancoding.com/sketch -->
    <title>logo</title>
    <desc>Created with Sketch.</desc>
    <defs>
        <linearGradient x1="-0.000143732542%" y1="49.9998236%" x2="99.9998563%" y2="49.9998236%" id="linearGradient-1">
            <stop stop-color="#00468C" offset="0%"></stop>
            <stop stop-color="#005DA4" offset="50%"></stop>
            <stop stop-color="#00468C" offset="100%"></stop>
        </linearGradient>
    </defs>
    <g id="Page-1" stroke="none" stroke-width="1" fill="none" fill-rule="evenodd">
        <g id="logo">
            <g id="Group">
                <g id="Shape">
                    <path d="M41.0861739,44.6149565 C40.1732609,44.6149565 39.2963478,44.418913 38.4773478,44.033087 L3.83869565,28.0087826 C1.66147826,27.0183913 0.251608696,24.827087 0.251608696,22.4323043 C0.251608696,20.0363478 1.66147826,17.847 3.84417391,16.8542609 L38.484,0.825652174 C39.2963478,0.442565217 40.1732609,0.246521739 41.0861739,0.246521739 C41.9971304,0.246521739 42.8732609,0.442956522 43.6930435,0.826434783 L78.3367826,16.8554348 C80.514,17.8446522 81.9250435,20.0355652 81.9250435,22.4323043 C81.9250435,24.8243478 80.5151739,27.012913 78.3375652,28.0087826 L43.6879565,44.0381739 C42.8728696,44.4212609 41.9971304,44.6149565 41.0861739,44.6149565 Z" fill="url(#linearGradient-1)"></path>
                    <path d="M3.7616087,22.4323043 C3.7616087,21.4262609 4.40334783,20.5066957 5.32447826,20.0872174 C5.32604348,20.0860435 37.4196522,7.46021739 44.3077826,4.75043478 C44.5288696,4.66317391 44.6767826,4.45304348 44.6838261,4.21552174 C44.6908696,3.9783913 44.5554783,3.75926087 44.3398696,3.65947826 L42.3273913,2.72817391 C41.5361739,2.36191304 40.6240435,2.36269565 39.8328261,2.72895652 C33.4561304,5.68056522 4.80521739,18.9422609 4.80247826,18.9438261 C3.43643478,19.5652174 2.55286957,20.9351739 2.55286957,22.4323043 C2.55286957,23.9290435 3.43252174,25.2966522 4.79582609,25.9184348 C5.17382609,26.0937391 33.4913478,39.191087 39.8336087,42.1274348 C40.6240435,42.4936957 41.5377391,42.4944783 42.3281739,42.1286087 L44.3426087,41.1965217 C44.5582174,41.0967391 44.6936087,40.878 44.6865652,40.6404783 C44.6795217,40.4029565 44.5316087,40.1924348 44.3101304,40.1055652 C26.7597391,33.2103913 11.7567391,27.3075652 5.32252174,24.7785652 C4.4013913,24.357913 3.7616087,23.4379565 3.7616087,22.4323043 Z" fill="#FFFFFF"></path>
                    <path d="M77.378087,18.9446087 C76.8071739,18.6808696 53.7973043,8.03426087 48.3182609,5.49978261 C47.583,5.15934783 46.7401304,5.13469565 45.986087,5.43091304 C45.4327826,5.64847826 44.769913,5.90908696 44.1911739,6.13643478 C43.9642174,6.22604348 43.8147391,6.44478261 43.8147391,6.68895652 C43.8147391,6.93313043 43.9642174,7.15226087 44.1911739,7.24147826 C50.6073913,9.76421739 76.8228261,20.0723478 76.851,20.0833043 C77.7752609,20.5063043 78.4158261,21.4262609 78.4158261,22.431913 C78.4158261,23.4383478 77.7752609,24.359087 76.856087,24.7785652 C73.3840435,26.1430435 50.7588261,35.0323043 44.1751304,37.6188261 C43.9481739,37.7080435 43.7986957,37.9271739 43.7986957,38.1709565 C43.7983043,38.4151304 43.9477826,38.6342609 44.1747391,38.7238696 C44.9843478,39.0427826 45.5384348,39.2603478 45.975913,39.4321304 C46.7295652,39.7279565 47.5712609,39.7025217 48.3061304,39.3628696 C53.838,36.8053043 77.378087,25.9215652 77.378087,25.9215652 C78.7425652,25.2986087 79.6253478,23.9290435 79.6253478,22.431913 C79.6257391,20.9375217 78.7453043,19.5663913 77.378087,18.9446087 Z" fill="#4D8EC6"></path>
                </g>
                <g transform="translate(16.826087, 16.826087)" id="Shape" fill="#FFFFFF">
                    <path d="M42.7339565,0.359217391 C39.6958696,0.359217391 37.2322174,2.70626087 37.2322174,5.60308696 C37.2322174,8.49913043 39.6962609,10.8469565 42.7339565,10.8469565 C45.7724348,10.8469565 48.234913,8.49913043 48.234913,5.60308696 C48.2353043,2.70626087 45.7724348,0.359217391 42.7339565,0.359217391 Z M42.7339565,8.89826087 C40.9918696,8.89826087 39.5788696,7.42304348 39.5788696,5.60308696 C39.5788696,3.78156522 40.9914783,2.30752174 42.7339565,2.30752174 C44.4764348,2.30752174 45.8886522,3.78156522 45.8886522,5.60308696 C45.8886522,7.42304348 44.4764348,8.89826087 42.7339565,8.89826087 Z"></path>
                    <path d="M25.5142174,0.532565217 L19.6732174,0.532565217 C19.1253913,0.532565217 18.6808696,0.97826087 18.6808696,1.52726087 C18.6808696,2.07586957 19.1253913,2.5196087 19.6732174,2.5196087 L21.4462174,2.5196087 L21.4462174,9.54195652 C21.4462174,10.1746957 21.9603913,10.6884783 22.5935217,10.6884783 C23.2274348,10.6884783 23.7423913,10.1746957 23.7423913,9.54195652 L23.7423913,2.5196087 L25.5146087,2.5196087 C26.0647826,2.5196087 26.5065652,2.07586957 26.5065652,1.52726087 C26.5061739,0.97826087 26.0643913,0.532565217 25.5142174,0.532565217 Z"></path>
                    <path d="M35.0444348,0.464869565 C34.4116957,0.464869565 33.8959565,0.980217391 33.8959565,1.61413043 L33.8959565,4.51604348 L29.6334783,4.51604348 L29.6334783,1.61413043 C29.6334783,0.980217391 29.1196957,0.464869565 28.485,0.464869565 C27.8526522,0.464869565 27.3384783,0.980217391 27.3384783,1.61413043 L27.3384783,9.54234783 C27.3384783,10.175087 27.8522609,10.6888696 28.485,10.6888696 C29.1196957,10.6888696 29.6334783,10.175087 29.6334783,9.54234783 L29.6334783,6.46434783 L33.8959565,6.46434783 L33.8959565,9.54195652 C33.8959565,10.1746957 34.4113043,10.6884783 35.0444348,10.6884783 C35.6795217,10.6884783 36.1925217,10.1746957 36.1925217,9.54195652 L36.1925217,1.61373913 C36.1921304,0.979826087 35.6795217,0.464869565 35.0444348,0.464869565 Z"></path>
                    <path d="M8.10234783,8.17982609 C7.88243478,8.17982609 7.67934783,8.24947826 7.51186957,8.36569565 C7.01726087,8.70495652 6.426,8.901 5.79052174,8.901 C4.04804348,8.901 2.63504348,7.4253913 2.63504348,5.60543478 C2.63504348,3.78508696 4.04804348,2.30908696 5.79052174,2.30908696 C6.41504348,2.30908696 6.99534783,2.50004348 7.48447826,2.8263913 C7.65821739,2.95747826 7.87069565,3.03456522 8.10234783,3.03456522 C8.67326087,3.03456522 9.13617391,2.57165217 9.13617391,2.00113043 C9.13617391,1.59965217 8.90686957,1.25413043 8.57308696,1.08234783 C7.75604348,0.625304348 6.80595652,0.361565217 5.79091304,0.361565217 C2.75282609,0.361565217 0.289173913,2.70821739 0.289173913,5.60465217 C0.289173913,8.50108696 2.75282609,10.8493043 5.79091304,10.8493043 C6.78991304,10.8493043 7.72434783,10.593 8.53278261,10.1492609 C8.88808696,9.98726087 9.13656522,9.62804348 9.13656522,9.21091304 C9.13617391,8.64195652 8.67326087,8.17982609 8.10234783,8.17982609 Z"></path>
                    <path d="M19.5464348,9.1983913 L15.8243478,1.125 C15.6286957,0.710608696 15.204913,0.478956522 14.774087,0.505956522 C14.3424783,0.478956522 13.9194783,0.710608696 13.725,1.125 L10.0025217,9.1983913 C9.74856522,9.7383913 9.9806087,10.3828696 10.5213913,10.6372174 C11.0625652,10.8907826 11.7058696,10.656 11.9602174,10.116 L12.4454348,9.06417391 L17.1015652,9.06417391 L17.5875652,10.116 C17.8415217,10.656 18.4848261,10.8907826 19.0263913,10.6372174 C19.5675652,10.3828696 19.8003913,9.7383913 19.5464348,9.1983913 Z M13.2953478,7.22465217 L14.774087,4.01595652 L16.2536087,7.22465217 L13.2953478,7.22465217 L13.2953478,7.22465217 Z"></path>
                </g>
            </g>
        </g>
    </g>
</svg>