<?xml version="1.0" encoding="UTF-8" standalone="no"?>
<svg width="24px" height="24px" viewBox="0 0 24 24" version="1.1" xmlns="http://www.w3.org/2000/svg" xmlns:xlink="http://www.w3.org/1999/xlink">
    <!-- Generator: Sketch 41.2 (35397) - http://www.bohemiancoding.com/sketch -->
    <title>Shape</title>
    <desc>Created with Sketch.</desc>
    <defs></defs>
    <g id="Page-1" stroke="none" stroke-width="1" fill="none" fill-rule="evenodd">
        <path d="M7.08,9.72 L5.4,11.4 L10.8,16.8 L22.8,4.8 L21.12,3.12 L10.8,13.44 L7.08,9.72 Z M21.6,12 C21.6,17.28 17.28,21.6 12,21.6 C6.72,21.6 2.4,17.28 2.4,12 C2.4,6.72 6.72,2.4 12,2.4 C12.96,2.4 13.8,2.52 14.64,2.76 L16.5600471,0.84 C15.12,0.36 13.56,0 12,0 C5.4,0 0,5.4 0,12 C0,18.6 5.4,24 12,24 C18.6,24 24,18.6 24,12 L21.6,12 Z" id="Shape" fill="#005DA4"></path>
    </g>
</svg>