<?xml version="1.0" encoding="UTF-8" standalone="no"?>
<svg width="24px" height="24px" viewBox="0 0 24 24" version="1.1" xmlns="http://www.w3.org/2000/svg" xmlns:xlink="http://www.w3.org/1999/xlink">
    <!-- Generator: Sketch 41.2 (35397) - http://www.bohemiancoding.com/sketch -->
    <title>Shape</title>
    <desc>Created with Sketch.</desc>
    <defs></defs>
    <g id="Page-1" stroke="none" stroke-width="1" fill="none" fill-rule="evenodd">
        <path d="M23.1763636,3.28909091 C23.5178182,3.63054545 23.5178182,4.19018182 23.1763636,4.53163636 L16.3298182,11.3716364 C15.9883636,11.712 15.9883636,12.2727273 16.3298182,12.6152727 L23.1730909,19.4574545 C23.5145455,19.7989091 23.5145455,20.3585455 23.1730909,20.7010909 L20.6803636,23.1850909 C20.3378182,23.5254545 19.7770909,23.5254545 19.4345455,23.1850909 L12.5934545,16.344 C12.252,16.0025455 11.6901818,16.0025455 11.3487273,16.344 L4.50218182,23.1807273 C4.16072727,23.5221818 3.59890909,23.5221818 3.25745455,23.1807273 L0.768,20.6934545 C0.426545455,20.352 0.426545455,19.7923636 0.768,19.4498182 L7.61672727,12.6109091 C7.95818182,12.2705455 7.95818182,11.7098182 7.61672727,11.3672727 L0.773454545,4.524 C0.430909091,4.18254545 0.430909091,3.62181818 0.773454545,3.28036364 L3.26509091,0.795272727 C3.60872727,0.454909091 4.16836364,0.454909091 4.51090909,0.796363636 L11.3509091,7.63636364 C11.6934545,7.97890909 12.2541818,7.97890909 12.5956364,7.63745455 L19.4421818,0.800727273 C19.7825455,0.460363636 20.3432727,0.460363636 20.6869091,0.800727273 L23.1763636,3.28909091 Z" id="Shape" fill="#80AED2"></path>
    </g>
</svg>