<?xml version="1.0" encoding="UTF-8" standalone="no"?>
<svg width="24px" height="24px" viewBox="0 0 24 24" version="1.1" xmlns="http://www.w3.org/2000/svg" xmlns:xlink="http://www.w3.org/1999/xlink">
    <!-- Generator: Sketch 41.2 (35397) - http://www.bohemiancoding.com/sketch -->
    <title>Combined Shape</title>
    <desc>Created with Sketch.</desc>
    <defs></defs>
    <g id="Page-1" stroke="none" stroke-width="1" fill="none" fill-rule="evenodd">
        <path d="M3.1815,13.5 C2.352,13.5 1.6815,14.172 1.6815,15 C1.6815,15.828 2.352,16.5 3.1815,16.5 L5.379,16.5 L0.4395,21.4395 C-0.147,22.026 -0.147,22.974 0.4395,23.5605 C0.732,23.853 1.116,24 1.5,24 C1.884,24 2.268,23.853 2.5605,23.5605 L7.6815,18.4395 L7.6815,21 C7.6815,21.828 8.352,22.5 9.1815,22.5 C10.011,22.5 10.5,21.828 10.5,21 L10.5,13.5 L3.1815,13.5 Z M4.5,10.5 C5.328,10.5 6,9.828 6,9 L6,6 L9,6 C9.8295,6 10.5,5.328 10.5,4.5 C10.5,3.672 9.8295,3 9,3 L3.0015,3 L3,9 C3,9.828 3.6705,10.5 4.5,10.5 Z M19.5,13.5 C18.6705,13.5 18,14.172 18,15 L18,18 L15,18 C14.1705,18 13.5,18.672 13.5,19.5 C13.5,20.328 14.1705,21 15,21 L21,21 L21,15 C21,14.172 20.3295,13.5 19.5,13.5 Z M21.4395,0.4395 L16.5,5.379 L16.5,3 C16.5,2.172 15.8295,1.5 15,1.5 C14.1705,1.5 13.5,2.172 13.5,3 L13.5,10.5 L21,10.5 C21.828,10.5 22.5,9.828 22.5,9 C22.5,8.172 21.8295,7.5 21,7.5 L18.621,7.5 L23.5605,2.562 C24.147,1.9755 24.147,1.0275 23.5605,0.441 C22.974,-0.1455 22.026,-0.147 21.4395,0.4395 Z" id="Combined-Shape" fill="#80AED2"></path>
    </g>
</svg>