<?xml version="1.0" encoding="UTF-8" standalone="no"?>
<svg width="24px" height="24px" viewBox="0 0 24 24" version="1.1" xmlns="http://www.w3.org/2000/svg" xmlns:xlink="http://www.w3.org/1999/xlink">
    <!-- Generator: Sketch 41.2 (35397) - http://www.bohemiancoding.com/sketch -->
    <title>Shape</title>
    <desc>Created with Sketch.</desc>
    <defs></defs>
    <g id="Page-1" stroke="none" stroke-width="1" fill="none" fill-rule="evenodd">
        <path d="M21,0 L8.97,0 C7.32,0 6,1.32 6,2.97 L6,15 C6,16.65 7.35,18 9,18 L21,18 C22.65,18 24,16.65 24,15 L24,3 C24,1.35 22.65,0 21,0 Z M21,15 L9,15 L9,3 L21,3 L21,15 Z M3,12 L0,12 L0,21 C0,22.65 1.35,24 3,24 L12,24 L12,21 L3,21 L3,12 Z" id="Shape" fill="#80AED2"></path>
    </g>
</svg>